<?xml version="1.0" encoding="utf-8"?>
<!-- Generator: Adobe Illustrator 24.0.1, SVG Export Plug-In . SVG Version: 6.00 Build 0)  -->
<svg version="1.1" id="Layer_1" xmlns="http://www.w3.org/2000/svg" xmlns:xlink="http://www.w3.org/1999/xlink" x="0px" y="0px"
	 viewBox="0 0 218.95 203.27" style="enable-background:new 0 0 218.95 203.27;" xml:space="preserve">
<style type="text/css">
	.st0{fill:#2B2B2B;}
</style>
<path class="st0" d="M206.19,12.68c3.91,0,7.09,3.18,7.09,7.09c0,3.91-3.18,7.09-7.09,7.09s-7.09-3.18-7.09-7.09
	C199.11,15.86,202.29,12.68,206.19,12.68 M206.19,7.01c-7.04,0-12.76,5.71-12.76,12.76c0,7.04,5.71,12.76,12.76,12.76
	s12.76-5.71,12.76-12.76C218.95,12.72,213.24,7.01,206.19,7.01L206.19,7.01z"/>
<path class="st0" d="M205.66,45.15c-16.6-11.5-35.3-17.6-68.3-28.7c-33-11.1-78.8-15.8-78.8-15.8c-33.6-3.2-37.7,5.7-48.5,21.7
	c-11.02,16.32-12.83,52.91-6.2,87.27c8.93,46.27,42.15,92.72,59.33,93.47c24.24,1.06,44.4-1.73,79.07-27.07
	c34.67-25.33,56-60.57,68.2-86.37C222.66,63.85,222.26,56.65,205.66,45.15z M181.81,98.35c-1.35,1-8.6,5.6-10.6,6.75
	c-2,1.15-4.55,3.2-6.4,0.8c-1.85-2.4-9.25-0.6-13.75-0.6c-8.05,0-8.1,2.95-20.65,2.95c-5.3,0-4.5-2.3-8.85-2.3
	c-1.65,0-5.4,0.4-5.4,4.35s-2.35,4.1-2.35,4.1l-28.8,0.8l17.69,1.35c0,0,3.71,5.25,6.01,9.2s3.8,7.5-2.9,10.9
	c-6.7,3.4-47.45,22.8-52.18,24.8s-8,5.1-8.73,4.47c-0.73-0.63-0.87-2.27-0.2-3.83s5.92-8.71,7.64-11.23
	c1.73-2.52,2.88-3.92,4.78-2.2c1.9,1.73,3.63,0.65,4.65,0c7.44-4.72,9.25-3.9,12.6-7.7c3.35-3.8,5.9-7,8.25-9.2
	c2.35-2.2,7.22-2.28,4.9-4.6c-2.32-2.32-2.85-0.75-5.35-0.75s-3.97-3.65-6.03-6.98c-2.07-3.33-12.13-16.33-5.93-24.47
	c6.2-8.13,10.47-27.9,10.47-27.9s-29.23,1.37-32.23,1.37s-5.4,0.43-5.4,1.47c0,1.03-0.77,6.17-5.3,6.17s-6.23-4.78-4.62-5.4
	c5.41-2.06,3.15-3.55,8.65-5.45c5.5-1.9,37.25-8.75,37.25-8.75c0,6.4,1.65,6.2,1.65,6.2l0.25-6.85c5.05-0.6,11.45,1.55,18.55,2.35
	c7.1,0.8,6.6-1.85,6.4-4.05s0.55-6.25,2.05-10.05s2.9-4.25,5.15-3.8s10.15,2.25,10.15,2.25s4.07,1.05,6.65,1.7
	c2.58,0.65,1.07,2.35-0.35,3.73c-1.42,1.38-0.95,3.65-0.92,5.65s-0.77,3.93-0.47,5.15c0.3,1.22,0.58,2.67,0.08,2.87
	c-0.5,0.2-2.65,0.25-2.65,0.25c0.05,1-1.15,5.25-2.65,5.95s-2.8-1.8-3.75-0.65c-0.95,1.15,2.05,9.2,3.1,11.65
	c1.05,2.45-0.35,2.95-4,4.7c-3.65,1.75-20.25,11.85-20.25,11.85c11.2-2.2,25.5-3.5,29-2.9c3.5,0.6,26.45,4,31.7,4.75
	s7.3,0.55,10.4-0.1c3.1-0.65,7.7-1.2,10.5-1.65C182.41,95,183.16,97.35,181.81,98.35z"/>
</svg>
