<?xml version="1.0" encoding="utf-8"?>
<!-- Generator: Adobe Illustrator 15.0.0, SVG Export Plug-In . SVG Version: 6.00 Build 0)  -->
<!DOCTYPE svg PUBLIC "-//W3C//DTD SVG 1.1//EN" "http://www.w3.org/Graphics/SVG/1.1/DTD/svg11.dtd">
<svg version="1.1" id="Слой_1" xmlns="http://www.w3.org/2000/svg" xmlns:xlink="http://www.w3.org/1999/xlink" x="0px" y="0px"
	 width="1024px" height="768px" viewBox="0 0 1024 768" enable-background="new 0 0 1024 768" xml:space="preserve">
<g id="pu47pm.tif">
	<g>
		<path fill="#36C6DD" d="M834.56,96c0,19.2-7.68,42.239-11.52,61.439c-34.56,111.36-145.92,437.76-168.96,487.68
			c-3.84,11.521-11.521,26.881-19.2,38.4c-3.84,3.84-3.84,7.68-7.68,11.52c-19.2,19.2-38.4,23.04-57.601,3.841
			c-19.199-19.2-30.72-38.4-42.239-61.44c-19.2-42.24-38.4-80.64-57.601-122.88c-15.359-38.4-46.08-65.28-84.479-84.48
			C339.2,407.039,293.12,384,247.04,360.96c-15.36-3.841-30.72-15.36-42.24-26.881c-23.04-26.88-19.2-49.919,7.68-69.119
			c11.52-7.681,23.04-15.36,38.4-19.2C304.64,222.72,711.68,76.8,761.6,65.28c11.521-3.84,23.04-7.68,38.4-7.68
			c23.04,0,34.56,11.521,34.56,34.561V96z"/>
	</g>
</g>
</svg>
